HIERARCHY
ROOT Cow_ROOTSHJnt
{
	OFFSET 0.000000 66.749710 104.418190
	CHANNELS 6 Xposition Yposition Zposition Xrotation Yrotation Zrotation
	JOINT Cow_Spine_01SHJnt
	{
		OFFSET 0.000000 -20.599148 -0.645164
		CHANNELS 3 Xrotation Yrotation Zrotation
		JOINT Cow_Spine_02SHJnt
		{
			OFFSET -0.000000 -20.593330 -0.659470
			CHANNELS 3 Xrotation Yrotation Zrotation
			JOINT Cow_Spine_03SHJnt
			{
				OFFSET -0.000000 -20.606550 -0.983307
				CHANNELS 3 Xrotation Yrotation Zrotation
				JOINT Cow_Spine_04SHJnt
				{
					OFFSET -0.000000 -20.599676 1.374176
					CHANNELS 3 Xrotation Yrotation Zrotation
					JOINT Cow_Spine_TopSHJnt
					{
						OFFSET -0.000000 -20.599678 0.913795
						CHANNELS 3 Xrotation Yrotation Zrotation
						JOINT Cow_l_Clavicle_01_01SHJnt
						{
							OFFSET 11.171912 0.000000 0.000000
							CHANNELS 3 Xrotation Yrotation Zrotation
							JOINT Cow_l_FrontLeg_HipSHJnt
							{
								OFFSET 7.976342 -4.953094 -13.093445
								CHANNELS 3 Xrotation Yrotation Zrotation
								JOINT Cow_l_FrontLeg_Knee1SHJnt
								{
									OFFSET 0.000006 -3.929440 -54.085663
									CHANNELS 3 Xrotation Yrotation Zrotation
									JOINT Cow_l_FrontLeg_Knee2SHJnt
									{
										OFFSET 0.000000 1.964958 -22.377888
										CHANNELS 3 Xrotation Yrotation Zrotation
										JOINT Cow_l_FrontLeg_AnkleSHJnt
										{
											OFFSET 0.000000 -0.663105 -5.827117
											CHANNELS 3 Xrotation Yrotation Zrotation
											JOINT Cow_l_FrontLeg_BallSHJnt
											{
												OFFSET 0.000006 -5.970051 -9.033520
												CHANNELS 3 Xrotation Yrotation Zrotation
												JOINT Cow_l_FrontLeg_ToeSHJnt
												{
													OFFSET 0.000006 -7.439106 -0.000235
													CHANNELS 3 Xrotation Yrotation Zrotation
													End Site
													{
														OFFSET 7.439106 0.000004 0.000000
													}
												}
											}
										}
									}
								}
							}
						}
						JOINT Cow_r_Clavicle_01_01SHJnt
						{
							OFFSET -11.171912 0.000000 0.000000
							CHANNELS 3 Xrotation Yrotation Zrotation
							JOINT Cow_r_FrontLeg_HipSHJnt
							{
								OFFSET -7.976342 -4.953094 -13.093445
								CHANNELS 3 Xrotation Yrotation Zrotation
								JOINT Cow_r_FrontLeg_Knee1SHJnt
								{
									OFFSET 0.000006 -3.929440 -54.085663
									CHANNELS 3 Xrotation Yrotation Zrotation
									JOINT Cow_r_FrontLeg_Knee2SHJnt
									{
										OFFSET 0.000000 1.964958 -22.377888
										CHANNELS 3 Xrotation Yrotation Zrotation
										JOINT Cow_r_FrontLeg_AnkleSHJnt
										{
											OFFSET 0.000000 -0.663105 -5.827118
											CHANNELS 3 Xrotation Yrotation Zrotation
											JOINT Cow_r_FrontLeg_BallSHJnt
											{
												OFFSET 0.000006 -5.970051 -9.033520
												CHANNELS 3 Xrotation Yrotation Zrotation
												JOINT Cow_r_FrontLeg_ToeSHJnt
												{
													OFFSET 0.000006 -7.439106 -0.000235
													CHANNELS 3 Xrotation Yrotation Zrotation
													End Site
													{
														OFFSET 7.439106 0.000004 0.000000
													}
												}
											}
										}
									}
								}
							}
						}
						JOINT Cow_Neck_01SHJnt
						{
							OFFSET 0.000000 -25.141075 -3.042923
							CHANNELS 3 Xrotation Yrotation Zrotation
							JOINT Cow_Neck_02SHJnt
							{
								OFFSET -0.000000 -19.440186 5.198975
								CHANNELS 3 Xrotation Yrotation Zrotation
								JOINT Cow_Neck_TopSHJnt
								{
									OFFSET -0.000000 -15.102203 2.823219
									CHANNELS 3 Xrotation Yrotation Zrotation
									JOINT Cow_Head_JawSHJnt
									{
										OFFSET 0.000000 -35.995033 -11.047020
										CHANNELS 3 Xrotation Yrotation Zrotation
										JOINT Cow_Head_JawEndSHJnt
										{
											OFFSET 0.000001 -14.239838 -8.004066
											CHANNELS 3 Xrotation Yrotation Zrotation
											End Site
											{
												OFFSET 0.000001 -14.351303 -7.802444
											}
										}
									}
									JOINT Cow_Head_TopSHJnt
									{
										OFFSET -0.000001 -27.576538 24.239853
										CHANNELS 3 Xrotation Yrotation Zrotation
										JOINT Cow_l_Ear_01_01SHJnt
										{
											OFFSET 14.495198 16.691696 -8.068298
											CHANNELS 3 Xrotation Yrotation Zrotation
											JOINT Cow_l_Ear_01_02SHJnt
											{
												OFFSET 6.722663 2.771584 1.751846
												CHANNELS 3 Xrotation Yrotation Zrotation
												JOINT Cow_l_Ear_01_03SHJnt
												{
													OFFSET 10.716763 -0.206581 1.540665
													CHANNELS 3 Xrotation Yrotation Zrotation
													End Site
													{
														OFFSET 0.679575 -10.457191 -2.729607
													}
												}
											}
										}
										JOINT Cow_r_Ear_01_01SHJnt
										{
											OFFSET -14.495194 16.691696 -8.068306
											CHANNELS 3 Xrotation Yrotation Zrotation
											JOINT Cow_r_Ear_01_02SHJnt
											{
												OFFSET -6.722663 2.771584 1.751839
												CHANNELS 3 Xrotation Yrotation Zrotation
												JOINT Cow_r_Ear_01_03SHJnt
												{
													OFFSET -10.716763 -0.206581 1.540665
													CHANNELS 3 Xrotation Yrotation Zrotation
													End Site
													{
														OFFSET -0.679575 -10.457191 -2.729607
													}
												}
											}
										}
									}
								}
							}
							JOINT Cow_NeckSkin_01_01SHJnt
							{
								OFFSET 0.000001 -3.570503 -28.699036
								CHANNELS 3 Xrotation Yrotation Zrotation
								JOINT Cow_NeckSkin_01_02SHJnt
								{
									OFFSET 0.000001 -3.287460 -13.726460
									CHANNELS 3 Xrotation Yrotation Zrotation
									End Site
									{
										OFFSET 0.000000 -13.726448 3.287464
									}
								}
							}
						}
					}
				}
			}
		}
	}
	JOINT Cow_l_HindLeg_HipSHJnt
	{
		OFFSET 22.626928 3.434624 -17.868790
		CHANNELS 3 Xrotation Yrotation Zrotation
		JOINT Cow_l_HindLeg_Knee1SHJnt
		{
			OFFSET -4.433996 11.629982 -42.020042
			CHANNELS 3 Xrotation Yrotation Zrotation
			JOINT Cow_l_HindLeg_Knee2SHJnt
			{
				OFFSET 0.572979 -5.223473 -32.422234
				CHANNELS 3 Xrotation Yrotation Zrotation
				JOINT Cow_l_HindLeg_AnkleSHJnt
				{
					OFFSET 0.961411 -2.095169 -7.270233
					CHANNELS 3 Xrotation Yrotation Zrotation
					JOINT Cow_l_HindLeg_BallSHJnt
					{
						OFFSET 0.000000 -3.795708 -4.836911
						CHANNELS 3 Xrotation Yrotation Zrotation
						JOINT Cow_l_HindLeg_ToeSHJnt
						{
							OFFSET 0.000000 -6.175804 0.000002
							CHANNELS 3 Xrotation Yrotation Zrotation
							End Site
							{
								OFFSET 6.175808 0.000000 0.000000
							}
						}
					}
				}
			}
		}
	}
	JOINT Cow_r_HindLeg_HipSHJnt
	{
		OFFSET -22.626928 3.434624 -17.868790
		CHANNELS 3 Xrotation Yrotation Zrotation
		JOINT Cow_r_HindLeg_Knee1SHJnt
		{
			OFFSET 4.434002 11.629982 -42.020042
			CHANNELS 3 Xrotation Yrotation Zrotation
			JOINT Cow_r_HindLeg_Knee2SHJnt
			{
				OFFSET -0.572975 -5.223473 -32.422234
				CHANNELS 3 Xrotation Yrotation Zrotation
				JOINT Cow_r_HindLeg_AnkleSHJnt
				{
					OFFSET -0.961411 -2.095169 -7.270234
					CHANNELS 3 Xrotation Yrotation Zrotation
					JOINT Cow_r_HindLeg_BallSHJnt
					{
						OFFSET 0.000000 -3.795708 -4.836910
						CHANNELS 3 Xrotation Yrotation Zrotation
						JOINT Cow_r_HindLeg_ToeSHJnt
						{
							OFFSET 0.000000 -6.175804 0.000002
							CHANNELS 3 Xrotation Yrotation Zrotation
							End Site
							{
								OFFSET 6.175806 0.000000 0.000001
							}
						}
					}
				}
			}
		}
	}
	JOINT Cow_Tail_01_01SHJnt
	{
		OFFSET 0.000000 20.837936 23.982246
		CHANNELS 3 Xrotation Yrotation Zrotation
		JOINT Cow_Tail_01_02SHJnt
		{
			OFFSET -0.000000 7.960037 -11.072281
			CHANNELS 3 Xrotation Yrotation Zrotation
			JOINT Cow_Tail_01_03SHJnt
			{
				OFFSET -0.000000 2.666931 -14.319489
				CHANNELS 3 Xrotation Yrotation Zrotation
				JOINT Cow_Tail_01_04SHJnt
				{
					OFFSET -0.000000 -1.425102 -14.386597
					CHANNELS 3 Xrotation Yrotation Zrotation
					JOINT Cow_Tail_01_05SHJnt
					{
						OFFSET -0.000000 -1.119919 -14.413574
						CHANNELS 3 Xrotation Yrotation Zrotation
						JOINT Cow_Tail_01_06SHJnt
						{
							OFFSET -0.000000 0.772911 -13.741093
							CHANNELS 3 Xrotation Yrotation Zrotation
							JOINT Cow_Tail_01_07SHJnt
							{
								OFFSET -0.000000 3.111671 -14.118168
								CHANNELS 3 Xrotation Yrotation Zrotation
								End Site
								{
									OFFSET -0.000000 14.118164 3.111679
								}
							}
						}
					}
				}
			}
		}
	}
	JOINT Cow_Udder_01_01SHJnt
	{
		OFFSET 0.000000 -7.188259 -41.393276
		CHANNELS 3 Xrotation Yrotation Zrotation
		JOINT Cow_Udder_01_02SHJnt
		{
			OFFSET 0.000001 3.137054 -13.240067
			CHANNELS 3 Xrotation Yrotation Zrotation
			End Site
			{
				OFFSET 0.000001 13.240070 3.137051
			}
		}
	}
}
MOTION
Frames: 4
Frame Time: 0.040000
0.000000 69.761391 94.001694 1.523810 0.000000 -0.000000 -5.005724 -0.000162 0.000451 -2.268689 0.000003 -0.000031 -2.653074 0.000010 0.000000 -3.861531 0.000001 0.000000 12.963459 -0.000001 -0.000006 7.680234 -0.653444 -0.134923 2.664286 2.804793 0.936399 35.005116 0.000020 -0.000002 76.611425 -0.159289 2.886783 9.636941 1.037477 -0.243171 0.000002 0.000013 0.000000 0.000002 -0.000000 0.000003 -4.507922 -0.000001 0.000012 12.279233 -5.746707 -2.968750 -9.173520 -0.000004 0.000002 -3.979450 -0.750496 4.624028 8.064071 4.963090 -0.740932 5.319404 0.542085 -0.315065 -0.000000 -0.000000 0.000003 3.750421 0.056026 -0.297476 9.603817 0.006465 -0.356174 6.579454 -0.001789 -0.018951 -21.767762 0.000002 0.000007 0.000003 -0.000000 -0.000000 -0.000003 0.000009 0.000011 -0.000003 0.000005 -0.000006 0.000001 -0.000001 -0.000000 0.000002 0.000000 -0.000000 -0.000009 0.000001 0.000003 0.000000 -0.000001 0.000000 -0.000003 0.000000 0.000000 -3.124018 -6.512358 2.792760 0.000000 0.000001 -0.000000 47.388505 0.708963 -25.195292 -54.705792 -13.609674 -5.448273 47.882836 14.450336 16.892101 5.205455 -4.520124 2.167427 0.000004 0.000007 -0.000000 0.000002 -0.000000 -0.000000 24.920970 -2.616262 14.679834 -12.259785 3.457738 0.031164 -14.579293 8.579763 -12.988953 2.065294 -2.719870 0.513399 0.000000 -0.000003 0.000001 -0.000000 0.000000 0.000000 10.686464 0.000002 0.000002 27.943163 0.000001 -0.000001 4.552884 0.000000 0.000000 -5.754232 -0.000000 0.000000 6.545367 0.000000 -0.000000 -0.585092 -0.000000 0.000000 0.000002 0.000007 0.000001 0.000009 0.000000 0.000000 0.000001 -0.000000 -0.000000 
0.000000 69.146233 95.424355 -1.127238 0.000000 -0.000000 -1.721288 0.000021 0.000486 -2.287778 0.000003 -0.000031 -3.330464 0.000010 -0.000001 -3.664616 -0.000000 0.000001 13.631698 0.000000 0.000000 7.282950 -0.713138 -0.152243 -13.719733 3.243916 2.405048 56.170011 0.000030 -0.000019 77.989743 0.081286 2.320079 23.180713 0.238004 -0.070395 0.000003 0.000000 0.000000 -0.000000 -0.000000 0.000003 -0.578547 -0.028620 -0.009636 13.946573 -5.124114 -1.982648 -5.152403 -0.000002 -0.000001 -1.191704 -0.009732 3.135008 2.807789 3.871118 -0.264551 9.890415 0.840287 -0.433506 -0.000002 0.000000 0.000003 3.423862 0.246662 -0.168075 8.824102 0.256422 -0.239232 6.055887 0.012542 -0.014215 -21.767763 0.000002 0.000007 0.000002 -0.000000 -0.000000 -0.000007 0.000009 0.000011 0.000001 0.000004 -0.000004 0.000001 0.000000 0.000000 0.000005 0.000001 0.000000 0.000001 0.000002 0.000002 -0.000002 0.000001 0.000001 0.000003 0.000000 0.000000 -10.009980 -10.369645 -4.104036 0.000000 -0.000000 -0.000001 52.312183 1.133628 -25.277927 -59.125280 -14.349971 -6.400549 67.147125 20.293085 12.193590 6.677525 -5.881387 2.951758 -0.000000 0.000007 -0.000000 -0.000002 0.000000 -0.000000 29.745812 -2.036071 14.400115 -3.912607 1.103772 -0.070555 -12.470430 6.313648 -13.636360 -2.211995 -1.261673 0.534692 0.000000 -0.000003 0.000001 -0.000001 -0.000000 0.000000 10.613711 -0.000001 -0.000003 27.834973 0.000001 -0.000001 4.471578 0.000000 0.000000 -5.835538 -0.000000 0.000000 10.444862 0.000000 -0.000000 10.147746 0.000000 -0.000000 -0.000001 0.000007 0.000001 0.000008 0.000000 0.000000 0.000002 0.000000 0.000000 
0.000000 68.350838 96.912819 -3.988337 0.000000 -0.000000 1.275495 0.000000 0.000316 -1.842942 0.000023 -0.000244 -3.660388 0.000010 -0.000002 -2.992542 -0.000000 0.000002 13.518732 0.000000 -0.000004 4.586931 -0.627959 -0.164837 -25.960834 3.621290 4.812911 51.472978 0.000030 -0.000014 66.907147 -3.896648 4.535080 34.742037 1.968157 -0.843011 0.000001 0.000027 0.000000 0.000003 -0.000000 0.000003 3.562000 -0.245416 -0.066470 8.610392 -4.760223 -1.992552 20.273559 0.000010 -0.000008 11.995090 3.797594 0.210767 0.043015 0.949407 -0.072665 2.436866 0.262528 -0.120848 -0.000001 -0.000000 0.000003 2.930822 0.380034 -0.074569 7.598007 0.431374 -0.145490 5.205679 0.022665 -0.009964 -21.767762 0.000002 0.000007 0.000002 -0.000000 -0.000000 -0.000003 0.000009 0.000011 0.000003 0.000004 -0.000006 -0.000002 -0.000001 0.000000 -0.000001 0.000000 -0.000000 -0.000006 0.000001 0.000002 -0.000002 0.000001 -0.000002 0.000002 -0.000000 -0.000000 -12.917731 -11.678245 -8.084454 0.000002 -0.000000 -0.000000 53.315818 1.520144 -25.307000 -58.366207 -14.228235 -6.233041 68.123726 20.493107 12.276608 6.967047 -6.171167 3.110705 0.000001 0.000007 -0.000000 -0.000001 0.000000 0.000000 41.566294 -2.425194 15.083400 -13.292860 3.746856 0.067566 12.094493 -3.250849 -14.459799 -2.152585 2.320054 -0.404094 -0.000001 -0.000003 0.000001 -0.000003 -0.000000 -0.000000 10.277871 0.000001 0.000002 27.335481 0.000001 -0.000001 4.096229 0.000000 -0.000000 -6.210889 -0.000000 0.000000 11.225437 0.000000 -0.000000 11.174654 0.000000 -0.000000 0.000001 0.000007 0.000001 0.000006 0.000000 0.000000 -0.000001 0.000000 0.000000 
0.000000 67.500778 98.264740 -6.639574 0.000000 -0.000000 3.581153 0.000002 0.000150 -1.027086 0.000055 -0.000621 -3.604026 0.000010 0.000002 -1.915067 -0.000000 0.000004 12.635275 0.000000 -0.000000 0.351435 -0.496901 -0.169737 -31.201814 4.015449 7.963709 36.173539 0.000023 -0.000009 69.334965 -10.387257 4.604326 33.986236 3.639981 -1.650263 -0.000003 0.000051 0.000000 -0.000001 0.000000 0.000003 7.096173 -0.581563 -0.125215 -1.553258 -4.747056 -2.731253 47.777935 0.000018 -0.000021 55.184985 5.095653 -5.021958 6.265765 -3.161814 0.458217 -0.000003 -0.000038 -0.000000 -0.000002 0.000000 0.000003 2.403271 0.421515 -0.040725 6.224654 0.487075 -0.101333 4.222118 0.025943 -0.007465 -21.767758 0.000002 0.000007 0.000000 0.000000 0.000000 0.000005 0.000009 0.000011 0.000007 0.000004 -0.000005 0.000001 -0.000001 -0.000001 -0.000002 0.000000 -0.000000 -0.000003 0.000002 0.000003 0.000001 0.000003 -0.000000 -0.000001 0.000001 0.000000 -12.302554 -10.209132 -7.655497 0.000002 0.000000 0.000000 50.937123 2.359521 -24.883851 -58.800368 -14.298147 -6.328653 68.690318 19.313108 11.728119 8.783516 -5.746805 3.336289 0.000002 0.000007 -0.000000 -0.000002 0.000000 0.000000 50.710514 -2.905910 15.927146 -23.896093 6.646293 0.738604 38.444068 -13.504685 -11.257361 -0.341483 6.484099 -1.745062 -0.000003 -0.000003 0.000001 -0.000004 -0.000000 0.000000 9.756573 -0.000003 -0.000006 26.560186 0.000001 -0.000001 3.513621 0.000000 -0.000000 -6.793492 -0.000000 0.000000 10.659593 0.000000 -0.000000 10.379164 0.000000 -0.000000 0.000000 0.000007 0.000001 0.000007 0.000000 0.000000 0.000001 0.000000 0.000000 
